<?xml version="1.0" encoding="UTF-8"?>
<!DOCTYPE svg PUBLIC "-//W3C//DTD SVG 1.1//EN" "http://www.w3.org/Graphics/SVG/1.1/DTD/svg11.dtd">
<svg xmlns="http://www.w3.org/2000/svg" version="1.1" width="500px" height="500px" style="shape-rendering:geometricPrecision; text-rendering:geometricPrecision; image-rendering:optimizeQuality; fill-rule:evenodd; clip-rule:evenodd" xmlns:xlink="http://www.w3.org/1999/xlink">
<g><path style="opacity:0.004" fill="#fefffe" d="M 496.5,3.5 C 497.833,4.16667 497.833,4.16667 496.5,3.5 Z"/></g>
<g><path style="opacity:0.004" fill="#fefffe" d="M 343.5,9.5 C 344.833,10.1667 344.833,10.1667 343.5,9.5 Z"/></g>
<g><path style="opacity:0.004" fill="#fefffe" d="M 222.5,19.5 C 223.833,20.1667 223.833,20.1667 222.5,19.5 Z"/></g>
<g><path style="opacity:0.004" fill="#fefffe" d="M 187.5,20.5 C 188.833,21.1667 188.833,21.1667 187.5,20.5 Z"/></g>
<g><path style="opacity:0.004" fill="#fefffe" d="M 336.5,21.5 C 337.833,22.1667 337.833,22.1667 336.5,21.5 Z"/></g>
<g><path style="opacity:0.004" fill="#fefffe" d="M 363.5,21.5 C 364.833,22.1667 364.833,22.1667 363.5,21.5 Z"/></g>
<g><path style="opacity:0.004" fill="#fefffe" d="M 147.5,34.5 C 148.833,35.1667 148.833,35.1667 147.5,34.5 Z"/></g>
<g><path style="opacity:0.004" fill="#fefffe" d="M 445.5,39.5 C 446.833,40.1667 446.833,40.1667 445.5,39.5 Z"/></g>
<g><path style="opacity:0.004" fill="#fefffe" d="M 375.5,41.5 C 376.833,42.1667 376.833,42.1667 375.5,41.5 Z"/></g>
<g><path style="opacity:1" fill="#262626" d="M 217.5,46.5 C 217.833,46.5 218.167,46.5 218.5,46.5C 224.303,45.9132 229.803,46.5798 235,48.5C 235.671,47.7476 236.504,47.4142 237.5,47.5C 243.146,52.9588 244.98,59.6255 243,67.5C 241.558,71.2749 239.058,74.1083 235.5,76C 229.888,77.1314 224.221,77.6314 218.5,77.5C 217.504,70.1992 216.837,62.8658 216.5,55.5C 216.264,52.3915 216.597,49.3915 217.5,46.5 Z M 223.5,50.5 C 235.547,50.055 240.047,55.7216 237,67.5C 235.786,69.0488 234.286,70.2155 232.5,71C 229.574,71.2178 226.74,71.7178 224,72.5C 222.765,66.5543 221.932,60.5543 221.5,54.5C 221.527,52.8007 222.194,51.4674 223.5,50.5 Z"/></g>
<g><path style="opacity:0.994" fill="#6d6d6d" d="M 237.5,47.5 C 236.504,47.4142 235.671,47.7476 235,48.5C 229.803,46.5798 224.303,45.9132 218.5,46.5C 221.563,45.7986 224.73,45.132 228,44.5C 231.42,44.9976 234.587,45.9976 237.5,47.5 Z"/></g>
<g><path style="opacity:0.604" fill="#989898" d="M 217.5,46.5 C 216.597,49.3915 216.264,52.3915 216.5,55.5C 215.842,54.2067 215.508,52.7067 215.5,51C 215.569,49.0145 216.235,47.5145 217.5,46.5 Z"/></g>
<g><path style="opacity:0.004" fill="#fefffe" d="M 398.5,49.5 C 399.833,50.1667 399.833,50.1667 398.5,49.5 Z"/></g>
<g><path style="opacity:0.918" fill="#5a5a5a" d="M 296.5,51.5 C 297.919,50.5489 299.585,50.2155 301.5,50.5C 301.5,52.1667 301.5,53.8333 301.5,55.5C 299.585,55.7845 297.919,55.4511 296.5,54.5C 297.833,54.5 299.167,54.5 300.5,54.5C 300.5,53.5 300.5,52.5 300.5,51.5C 299.167,51.5 297.833,51.5 296.5,51.5 Z"/></g>
<g><path style="opacity:1" fill="#313131" d="M 200.5,71.5 C 200.959,74.8774 201.626,78.2107 202.5,81.5C 201.116,82.8009 199.616,82.8009 198,81.5C 195.47,72.0758 192.636,62.7424 189.5,53.5C 190.617,50.6867 192.45,50.02 195,51.5C 196.834,58.1696 198.667,64.8363 200.5,71.5 Z"/></g>
<g><path style="opacity:0.4" fill="#9c9c9c" d="M 223.5,50.5 C 222.194,51.4674 221.527,52.8007 221.5,54.5C 220.566,53.4324 220.232,52.099 220.5,50.5C 221.5,50.5 222.5,50.5 223.5,50.5 Z"/></g>
<g><path style="opacity:1" fill="#222222" d="M 296.5,51.5 C 297.833,51.5 299.167,51.5 300.5,51.5C 300.5,52.5 300.5,53.5 300.5,54.5C 299.167,54.5 297.833,54.5 296.5,54.5C 295.167,53.5 295.167,52.5 296.5,51.5 Z"/></g>
<g><path style="opacity:1" fill="#282828" d="M 267.5,58.5 C 267.5,60.5 267.5,62.5 267.5,64.5C 261.794,64.1712 256.128,64.5046 250.5,65.5C 250.624,66.1067 250.957,66.44 251.5,66.5C 254.046,70.7253 257.713,72.0586 262.5,70.5C 263.5,70.5 264.5,70.5 265.5,70.5C 265.5,71.5 265.5,72.5 265.5,73.5C 258.648,78.0667 252.481,77.0667 247,70.5C 244.045,62.0182 246.545,55.8515 254.5,52C 260.678,50.6611 265.012,52.8278 267.5,58.5 Z M 260.5,61.5 C 257.833,60.8333 255.167,60.1667 252.5,59.5C 256.435,55.3875 260.102,55.7208 263.5,60.5C 262.675,61.3857 261.675,61.719 260.5,61.5 Z"/></g>
<g><path style="opacity:0.004" fill="#fefffe" d="M 67.5,54.5 C 68.8333,55.1667 68.8333,55.1667 67.5,54.5 Z"/></g>
<g><path style="opacity:1" fill="#363636" d="M 277.5,53.5 C 281.986,52.9944 285.819,54.3277 289,57.5C 289.884,59.6406 289.384,61.3073 287.5,62.5C 285.618,60.3918 283.285,59.0585 280.5,58.5C 277.025,59.2855 276.692,60.7855 279.5,63C 288.745,65.7772 290.412,70.7772 284.5,78C 280.406,78.7673 276.406,78.434 272.5,77C 269.111,74.3443 268.944,71.8443 272,69.5C 274.401,71.5624 277.067,73.2291 280,74.5C 281.395,74.2196 282.562,73.5529 283.5,72.5C 280.488,69.2384 276.988,66.5717 273,64.5C 271.391,59.3912 272.891,55.7245 277.5,53.5 Z"/></g>
<g><path style="opacity:1" fill="#2c2c2c" d="M 291.5,80.5 C 290.699,78.9582 290.366,77.2915 290.5,75.5C 291.924,73.4855 292.59,71.1522 292.5,68.5C 292.814,65.0534 293.648,61.7201 295,58.5C 297.476,56.9372 298.976,57.6038 299.5,60.5C 297.842,66.797 296.342,73.1303 295,79.5C 294,80.1667 293,80.8333 292,81.5C 291.601,81.2716 291.435,80.9382 291.5,80.5 Z"/></g>
<g><path style="opacity:0.004" fill="#fefffe" d="M 459.5,59.5 C 460.833,60.1667 460.833,60.1667 459.5,59.5 Z"/></g>
<g><path style="opacity:0.016" fill="#d6d6d6" d="M 252.5,59.5 C 255.167,60.1667 257.833,60.8333 260.5,61.5C 257.428,61.8174 254.428,61.4841 251.5,60.5C 251.624,59.8933 251.957,59.56 252.5,59.5 Z"/></g>
<g><path style="opacity:1" fill="#333333" d="M 302.5,87.5 C 302.973,88.9063 303.973,89.573 305.5,89.5C 307.857,89.6633 310.19,89.4966 312.5,89C 313.357,88.3109 314.023,87.4776 314.5,86.5C 305.71,88.0682 300.71,84.2349 299.5,75C 299.927,67.3077 303.927,62.8077 311.5,61.5C 315.278,62.2773 318.611,63.944 321.5,66.5C 324.071,65.1998 325.738,66.0331 326.5,69C 323.854,75.789 321.354,82.6223 319,89.5C 312.697,96.8357 305.864,97.169 298.5,90.5C 297.548,88.9547 297.215,87.288 297.5,85.5C 299.698,85.1201 301.365,85.7868 302.5,87.5 Z M 311.5,66.5 C 317.947,68.3945 319.781,72.3945 317,78.5C 311.582,83.7374 307.415,82.7374 304.5,75.5C 305.188,71.0828 307.521,68.0828 311.5,66.5 Z"/></g>
<g><path style="opacity:0.004" fill="#fefffe" d="M 328.5,63.5 C 329.833,64.1667 329.833,64.1667 328.5,63.5 Z"/></g>
<g><path style="opacity:0.81" fill="#5c5c5c" d="M 267.5,58.5 C 268.468,60.6074 268.802,62.9407 268.5,65.5C 262.642,65.1778 256.975,65.5111 251.5,66.5C 250.957,66.44 250.624,66.1067 250.5,65.5C 256.128,64.5046 261.794,64.1712 267.5,64.5C 267.5,62.5 267.5,60.5 267.5,58.5 Z"/></g>
<g><path style="opacity:0.999" fill="#313131" d="M 185.5,83.5 C 187.833,83.1667 189.167,81.8333 189.5,79.5C 191.377,78.0716 192.711,78.5716 193.5,81C 187.62,90.4102 180.453,91.5768 172,84.5C 168.016,77.5862 168.849,71.4195 174.5,66C 182.349,62.5946 188.016,64.7613 191.5,72.5C 191.167,73.1667 190.833,73.8333 190.5,74.5C 185.943,76.9456 181.277,79.1123 176.5,81C 179.017,83.2508 182.017,84.0841 185.5,83.5 Z M 182.5,69.5 C 183.167,70.5 183.833,71.5 184.5,72.5C 181.055,73.1489 177.889,74.4823 175,76.5C 174.28,74.8876 174.446,73.3876 175.5,72C 177.441,70.0972 179.774,69.2639 182.5,69.5 Z"/></g>
<g><path style="opacity:0.58" fill="#aeaeae" d="M 182.5,69.5 C 185.051,69.6682 185.718,70.6682 184.5,72.5C 183.833,71.5 183.167,70.5 182.5,69.5 Z"/></g>
<g><path style="opacity:0.894" fill="#7e7e7e" d="M 262.5,70.5 C 264.185,69.156 265.852,69.3227 267.5,71C 266.934,71.9947 266.267,72.828 265.5,73.5C 265.5,72.5 265.5,71.5 265.5,70.5C 264.5,70.5 263.5,70.5 262.5,70.5 Z"/></g>
<g><path style="opacity:1" fill="#323232" d="M 335.5,72.5 C 335.586,73.4959 335.252,74.3292 334.5,75C 335.437,75.6917 336.103,75.525 336.5,74.5C 339.877,74.0679 342.877,74.7345 345.5,76.5C 345.427,78.0269 346.094,79.0269 347.5,79.5C 347.602,86.7309 345.269,93.0642 340.5,98.5C 338.167,100.002 336.501,99.5021 335.5,97C 338.213,92.2049 340.546,87.2049 342.5,82C 340.842,78.7035 338.175,77.7035 334.5,79C 331.9,82.597 329.734,86.4303 328,90.5C 323.942,93.5888 322.275,92.5888 323,87.5C 325.929,82.2116 328.762,76.8782 331.5,71.5C 332.167,71.1667 332.833,70.8333 333.5,70.5C 334.713,70.7472 335.38,71.4138 335.5,72.5 Z"/></g>
<g><path style="opacity:1" fill="#323232" d="M 161.5,71.5 C 162.496,71.4142 163.329,71.7476 164,72.5C 165.375,80.4619 166.042,88.4619 166,96.5C 163.79,97.7488 161.624,97.5822 159.5,96C 154.214,91.8784 149.214,87.5451 144.5,83C 145.409,80.6807 147.075,80.0141 149.5,81C 153,83.8333 156.5,86.6667 160,89.5C 160.536,85.1511 160.369,80.8177 159.5,76.5C 159.724,74.5453 160.391,72.8787 161.5,71.5 Z"/></g>
<g><path style="opacity:0.918" fill="#8a8a8a" d="M 200.5,71.5 C 202.68,74.6606 203.347,77.9939 202.5,81.5C 201.626,78.2107 200.959,74.8774 200.5,71.5 Z"/></g>
<g><path style="opacity:0.733" fill="#737373" d="M 292.5,68.5 C 292.59,71.1522 291.924,73.4855 290.5,75.5C 290.41,72.8478 291.076,70.5145 292.5,68.5 Z"/></g>
<g><path style="opacity:0.349" fill="#b1b1b1" d="M 335.5,72.5 C 336.338,72.8417 336.672,73.5084 336.5,74.5C 336.103,75.525 335.437,75.6917 334.5,75C 335.252,74.3292 335.586,73.4959 335.5,72.5 Z"/></g>
<g><path style="opacity:0.251" fill="#c1c1c1" d="M 290.5,75.5 C 290.366,77.2915 290.699,78.9582 291.5,80.5C 290.351,80.2089 289.684,79.3756 289.5,78C 289.528,76.9302 289.861,76.0968 290.5,75.5 Z"/></g>
<g><path style="opacity:0.369" fill="#a2a2a2" d="M 345.5,76.5 C 346.906,76.9731 347.573,77.9731 347.5,79.5C 346.094,79.0269 345.427,78.0269 345.5,76.5 Z"/></g>
<g><path style="opacity:0.004" fill="#fefffe" d="M 485.5,80.5 C 486.833,81.1667 486.833,81.1667 485.5,80.5 Z"/></g>
<g><path style="opacity:0.004" fill="#fefffe" d="M 110.5,81.5 C 111.833,82.1667 111.833,82.1667 110.5,81.5 Z"/></g>
<g><path style="opacity:0.631" fill="#888888" d="M 189.5,79.5 C 189.167,81.8333 187.833,83.1667 185.5,83.5C 186.5,81.8333 187.833,80.5 189.5,79.5 Z"/></g>
<g><path style="opacity:0.004" fill="#fefffe" d="M 446.5,85.5 C 447.833,86.1667 447.833,86.1667 446.5,85.5 Z"/></g>
<g><path style="opacity:0.004" fill="#fefffe" d="M 234.5,87.5 C 235.833,88.1667 235.833,88.1667 234.5,87.5 Z"/></g>
<g><path style="opacity:0.004" fill="#c3c3c3" d="M 302.5,87.5 C 304.027,87.427 305.027,88.0937 305.5,89.5C 303.973,89.573 302.973,88.9063 302.5,87.5 Z"/></g>
<g><path style="opacity:1" fill="#2f2f2f" d="M 367.5,92.5 C 367.517,94.5648 367.85,96.5648 368.5,98.5C 368.88,101.792 367.547,104.125 364.5,105.5C 359.915,103.081 355.748,100.081 352,96.5C 349.922,99.5424 350.422,102.209 353.5,104.5C 355.816,105.932 358.316,106.932 361,107.5C 361.521,110.118 360.354,111.451 357.5,111.5C 347.873,109.712 344.039,104.045 346,94.5C 349.642,87.848 355.142,85.348 362.5,87C 365.079,88.0757 366.746,89.909 367.5,92.5 Z M 357.5,90.5 C 361.129,91.3079 363.462,93.4745 364.5,97C 364.167,97.5 363.833,98 363.5,98.5C 360.328,96.7481 357.328,94.7481 354.5,92.5C 355.602,91.8243 356.602,91.1577 357.5,90.5 Z"/></g>
<g><path style="opacity:1" fill="#303030" d="M 133.5,88.5 C 137.876,88.114 142.043,88.7806 146,90.5C 147.301,92.3646 147.635,94.3646 147,96.5C 143.078,99.2114 139.244,102.045 135.5,105C 141.272,108.288 145.272,106.622 147.5,100C 149.641,99.1163 151.307,99.6163 152.5,101.5C 149.422,110.206 143.422,113.372 134.5,111C 127.93,107.345 125.763,101.845 128,94.5C 129.36,91.9774 131.193,89.9774 133.5,88.5 Z M 135.5,99.5 C 134.504,99.4142 133.671,99.7476 133,100.5C 132.51,99.2068 132.343,97.8734 132.5,96.5C 133.659,95.5442 134.826,94.5442 136,93.5C 138.736,91.8657 140.07,92.5324 140,95.5C 138.008,96.3281 136.508,97.6614 135.5,99.5 Z"/></g>
<g><path style="opacity:0.004" fill="#fefffe" d="M 22.5,91.5 C 23.8333,92.1667 23.8333,92.1667 22.5,91.5 Z"/></g>
<g><path style="opacity:0.004" fill="#fefffe" d="M 424.5,94.5 C 425.833,95.1667 425.833,95.1667 424.5,94.5 Z"/></g>
<g><path style="opacity:0.973" fill="#767676" d="M 367.5,92.5 C 369.151,94.4021 369.484,96.4021 368.5,98.5C 367.85,96.5648 367.517,94.5648 367.5,92.5 Z"/></g>
<g><path style="opacity:0.004" fill="#fefffe" d="M 326.5,96.5 C 327.833,97.1667 327.833,97.1667 326.5,96.5 Z"/></g>
<g><path style="opacity:0.118" fill="#b9b9b9" d="M 132.5,96.5 C 132.343,97.8734 132.51,99.2068 133,100.5C 133.671,99.7476 134.504,99.4142 135.5,99.5C 134.713,101.104 133.38,101.771 131.5,101.5C 131.216,99.5853 131.549,97.9187 132.5,96.5 Z"/></g>
<g><path style="opacity:0.004" fill="#fefffe" d="M 480.5,98.5 C 481.833,99.1667 481.833,99.1667 480.5,98.5 Z"/></g>
<g><path style="opacity:0.004" fill="#fefffe" d="M 297.5,100.5 C 298.833,101.167 298.833,101.167 297.5,100.5 Z"/></g>
<g><path style="opacity:1" fill="#353535" d="M 378.5,100.5 C 378.5,101.833 378.5,103.167 378.5,104.5C 379.833,104.5 381.167,104.5 382.5,104.5C 387.754,105.942 388.421,108.275 384.5,111.5C 382.796,109.959 380.963,108.625 379,107.5C 377.107,108.196 375.274,109.03 373.5,110C 371.539,112.963 369.206,115.629 366.5,118C 364.051,118.775 362.384,117.942 361.5,115.5C 366.295,110.534 370.961,105.368 375.5,100C 376.749,99.2599 377.749,99.4265 378.5,100.5 Z"/></g>
<g><path style="opacity:0.004" fill="#fefffe" d="M 173.5,101.5 C 174.833,102.167 174.833,102.167 173.5,101.5 Z"/></g>
<g><path style="opacity:0.141" fill="#cccccc" d="M 378.5,100.5 C 379.404,101.209 379.737,102.209 379.5,103.5C 380.791,103.263 381.791,103.596 382.5,104.5C 381.167,104.5 379.833,104.5 378.5,104.5C 378.5,103.167 378.5,101.833 378.5,100.5 Z"/></g>
<g><path style="opacity:1" fill="#2e2e2e" d="M 114.5,114.5 C 115.08,116.749 116.413,118.415 118.5,119.5C 120.097,120.09 121.431,121.09 122.5,122.5C 124.981,121.28 126.981,119.614 128.5,117.5C 130.315,116.37 132.315,115.704 134.5,115.5C 134.5,116.5 134.5,117.5 134.5,118.5C 131.165,122.833 127.165,126.5 122.5,129.5C 121.833,129.333 121.167,129.167 120.5,129C 116.241,124.583 112.241,120.083 108.5,115.5C 107.738,113.738 106.404,112.738 104.5,112.5C 103.315,111.143 102.315,109.643 101.5,108C 101.734,106.268 102.734,105.434 104.5,105.5C 108.448,107.78 111.782,110.78 114.5,114.5 Z"/></g>
<g><path style="opacity:0.004" fill="#fefffe" d="M 16.5,107.5 C 17.8333,108.167 17.8333,108.167 16.5,107.5 Z"/></g>
<g><path style="opacity:0.004" fill="#fefffe" d="M 418.5,111.5 C 419.833,112.167 419.833,112.167 418.5,111.5 Z"/></g>
<g><path style="opacity:0.604" fill="#aaaaaa" d="M 104.5,112.5 C 106.404,112.738 107.738,113.738 108.5,115.5C 106.596,115.262 105.262,114.262 104.5,112.5 Z"/></g>
<g><path style="opacity:0.004" fill="#fefffe" d="M 40.5,113.5 C 41.8333,114.167 41.8333,114.167 40.5,113.5 Z"/></g>
<g><path style="opacity:0.78" fill="#989898" d="M 114.5,114.5 C 116.587,115.585 117.92,117.251 118.5,119.5C 116.413,118.415 115.08,116.749 114.5,114.5 Z"/></g>
<g><path style="opacity:0.831" fill="#787878" d="M 134.5,118.5 C 134.5,117.5 134.5,116.5 134.5,115.5C 132.315,115.704 130.315,116.37 128.5,117.5C 130.036,114.908 132.369,113.908 135.5,114.5C 135.768,116.099 135.434,117.432 134.5,118.5 Z"/></g>
<g><path style="opacity:0.004" fill="#fefffe" d="M 259.5,117.5 C 260.833,118.167 260.833,118.167 259.5,117.5 Z"/></g>
<g><path style="opacity:0.004" fill="#feff00" d="M 424.5,118.5 C 425.833,119.167 425.833,119.167 424.5,118.5 Z"/></g>
<g><path style="opacity:0.004" fill="#fefffe" d="M 63.5,119.5 C 64.8333,120.167 64.8333,120.167 63.5,119.5 Z"/></g>
<g><path style="opacity:0.004" fill="#fefffe" d="M 419.5,120.5 C 420.833,121.167 420.833,121.167 419.5,120.5 Z"/></g>
<g><path style="opacity:1" fill="#434343" d="M 382.5,137.5 C 382.433,136.041 382.766,134.708 383.5,133.5C 385.707,132.13 387.374,132.797 388.5,135.5C 387.5,137.167 386.167,138.5 384.5,139.5C 383.478,139.145 382.811,138.478 382.5,137.5 Z"/></g>
<g><path style="opacity:0.349" fill="#bababa" d="M 383.5,133.5 C 382.766,134.708 382.433,136.041 382.5,137.5C 381.876,137.083 381.543,136.416 381.5,135.5C 381.747,134.287 382.414,133.62 383.5,133.5 Z"/></g>
<g><path style="opacity:0.004" fill="#fe00ff" d="M 234.5,135.5 C 235.833,136.167 235.833,136.167 234.5,135.5 Z"/></g>
<g><path style="opacity:0.999" fill="#3b3b3b" d="M 107.5,144.5 C 106.766,143.292 106.433,141.959 106.5,140.5C 109.08,138.992 111.08,139.659 112.5,142.5C 111.374,145.203 109.707,145.87 107.5,144.5 Z"/></g>
<g><path style="opacity:1" fill="#343434" d="M 416.5,158.5 C 416.427,160.027 417.094,161.027 418.5,161.5C 419.598,162.601 419.765,163.934 419,165.5C 410.789,174.277 404.122,173.277 399,162.5C 395.888,151.892 399.388,144.392 409.5,140C 416.375,138.521 422.208,140.354 427,145.5C 429.76,149.404 430.594,153.57 429.5,158C 428.207,158.49 426.873,158.657 425.5,158.5C 424.761,147.25 419.095,143.417 408.5,147C 402.059,153.018 401.892,159.185 408,165.5C 409.803,164.687 411.303,163.52 412.5,162C 410.542,159.851 410.209,157.518 411.5,155C 414.368,154.36 416.035,155.527 416.5,158.5 Z"/></g>
<g><path style="opacity:0.553" fill="#9d9d9d" d="M 106.5,140.5 C 106.433,141.959 106.766,143.292 107.5,144.5C 106.414,144.38 105.747,143.713 105.5,142.5C 105.543,141.584 105.876,140.917 106.5,140.5 Z"/></g>
<g><path style="opacity:0.871" fill="#727272" d="M 80.5,146.5 C 81.5676,145.566 82.901,145.232 84.5,145.5C 84.7845,147.415 84.4511,149.081 83.5,150.5C 83.5,149.167 83.5,147.833 83.5,146.5C 82.5,146.5 81.5,146.5 80.5,146.5 Z"/></g>
<g><path style="opacity:0.102" fill="#ababab" d="M 79.5,148.5 C 79.5,150.833 79.5,153.167 79.5,155.5C 78.5,155.5 77.5,155.5 76.5,155.5C 77.8953,153.307 78.8953,150.974 79.5,148.5 Z"/></g>
<g><path style="opacity:1" fill="#2e2e2e" d="M 80.5,146.5 C 81.5,146.5 82.5,146.5 83.5,146.5C 83.5,147.833 83.5,149.167 83.5,150.5C 82.2979,152.945 82.6312,155.278 84.5,157.5C 88.1667,159.667 91.8333,161.833 95.5,164C 96.9388,166.305 96.4388,168.138 94,169.5C 88.8513,166.669 83.6847,163.836 78.5,161C 75.8743,159.628 75.2076,157.795 76.5,155.5C 77.5,155.5 78.5,155.5 79.5,155.5C 79.5,153.167 79.5,150.833 79.5,148.5C 79.3284,147.508 79.6618,146.842 80.5,146.5 Z"/></g>
<g><path style="opacity:0.4" fill="#a1a1a1" d="M 416.5,158.5 C 417.906,158.973 418.573,159.973 418.5,161.5C 417.094,161.027 416.427,160.027 416.5,158.5 Z"/></g>
<g><path style="opacity:0.004" fill="#fefffe" d="M 428.5,161.5 C 429.833,162.167 429.833,162.167 428.5,161.5 Z"/></g>
<g><path style="opacity:1" fill="#323232" d="M 78.5,181.5 C 77.596,182.209 77.2627,183.209 77.5,184.5C 79.4147,184.784 81.0813,184.451 82.5,183.5C 85.8109,180.073 86.9776,176.073 86,171.5C 87.0495,170.483 88.2161,170.316 89.5,171C 93.1686,182.979 88.8353,188.979 76.5,189C 67.6627,186.155 64.496,180.322 67,171.5C 70.3143,166.729 74.8143,164.896 80.5,166C 82.4096,166.408 83.4096,167.575 83.5,169.5C 81.8274,173.523 80.1607,177.523 78.5,181.5 Z M 73.5,171.5 C 75.099,171.232 76.4324,171.566 77.5,172.5C 76.0133,175.473 74.5133,178.473 73,181.5C 70.9467,178.045 71.1134,174.712 73.5,171.5 Z"/></g>
<g><path style="opacity:0.004" fill="#fefffe" d="M 142.5,167.5 C 143.833,168.167 143.833,168.167 142.5,167.5 Z"/></g>
<g><path style="opacity:1" fill="#353535" d="M 424.5,167.5 C 426.167,167.5 427.833,167.5 429.5,167.5C 429.714,169.144 429.38,170.644 428.5,172C 431.578,173.411 433.578,175.744 434.5,179C 433.313,181.59 431.48,182.09 429,180.5C 429.147,176.981 427.48,174.981 424,174.5C 420.167,176 416.333,177.5 412.5,179C 408.339,180.174 407.005,178.841 408.5,175C 413.822,172.193 419.156,169.693 424.5,167.5 Z"/></g>
<g><path style="opacity:0.122" fill="#b1b1b1" d="M 73.5,171.5 C 75.0348,170.212 76.7015,170.212 78.5,171.5C 78.3764,172.107 78.0431,172.44 77.5,172.5C 76.4324,171.566 75.099,171.232 73.5,171.5 Z"/></g>
<g><path style="opacity:0.004" fill="#fefffe" d="M 133.5,175.5 C 134.833,176.167 134.833,176.167 133.5,175.5 Z"/></g>
<g><path style="opacity:0.133" fill="#b0b0b0" d="M 78.5,181.5 C 79.1834,183.176 80.5168,183.843 82.5,183.5C 81.0813,184.451 79.4147,184.784 77.5,184.5C 77.2627,183.209 77.596,182.209 78.5,181.5 Z"/></g>
<g><path style="opacity:0.004" fill="#fefffe" d="M 45.5,183.5 C 46.8333,184.167 46.8333,184.167 45.5,183.5 Z"/></g>
<g><path style="opacity:1" fill="#303030" d="M 439.5,198.5 C 436.666,200.649 436.999,201.649 440.5,201.5C 441.782,202.708 441.782,204.042 440.5,205.5C 434.042,207.738 427.542,209.738 421,211.5C 418.561,210.138 418.061,208.305 419.5,206C 412.507,198.942 413.173,192.609 421.5,187C 432.651,183.082 438.651,186.916 439.5,198.5 Z M 425.5,190.5 C 433.845,190.691 436.178,194.524 432.5,202C 428.679,204.141 425.012,203.974 421.5,201.5C 419.751,196.671 421.085,193.004 425.5,190.5 Z"/></g>
<g><path style="opacity:1" fill="#323232" d="M 54.5,218.5 C 55.675,218.719 56.675,218.386 57.5,217.5C 57.3764,216.893 57.0431,216.56 56.5,216.5C 54.3482,211.314 55.6815,207.147 60.5,204C 57.6326,199.409 57.966,195.076 61.5,191C 63.0344,190.077 64.701,189.577 66.5,189.5C 71.8462,190.603 77.1795,191.769 82.5,193C 83.9388,195.305 83.4388,197.138 81,198.5C 75.6326,196.353 70.1326,195.687 64.5,196.5C 63.048,199.282 63.3813,201.782 65.5,204C 70.0855,205.585 74.7522,206.918 79.5,208C 80.8333,209.333 80.8333,210.667 79.5,212C 74.2635,211.903 69.0968,211.07 64,209.5C 58.678,211.819 58.178,214.986 62.5,219C 67.1667,220 71.8333,221 76.5,222C 78.1842,224.786 77.5175,226.62 74.5,227.5C 67.4682,226.035 60.6348,224.035 54,221.5C 53.2599,220.251 53.4265,219.251 54.5,218.5 Z"/></g>
<g><path style="opacity:0.251" fill="#c4c4c4" d="M 439.5,198.5 C 439.557,199.609 439.89,200.609 440.5,201.5C 436.999,201.649 436.666,200.649 439.5,198.5 Z"/></g>
<g><path style="opacity:0.004" fill="#fefffe" d="M 100.5,201.5 C 101.833,202.167 101.833,202.167 100.5,201.5 Z"/></g>
<g><path style="opacity:0.004" fill="#fefffe" d="M 349.5,202.5 C 350.833,203.167 350.833,203.167 349.5,202.5 Z"/></g>
<g><path style="opacity:0.004" fill="#fefffe" d="M 267.5,205.5 C 268.833,206.167 268.833,206.167 267.5,205.5 Z"/></g>
<g><path style="opacity:0.004" fill="#fefffe" d="M 263.5,206.5 C 264.833,207.167 264.833,207.167 263.5,206.5 Z"/></g>
<g><path style="opacity:1" fill="#2b2b2b" d="M 425.5,233.5 C 425.027,232.094 424.027,231.427 422.5,231.5C 420.454,228.216 420.121,224.883 421.5,221.5C 424.374,218.811 424.041,218.144 420.5,219.5C 420.167,219.5 419.833,219.5 419.5,219.5C 417.167,219.5 414.833,219.5 412.5,219.5C 412.433,218.041 412.766,216.708 413.5,215.5C 422.318,214.407 431.151,213.073 440,211.5C 443.935,212.311 444.435,214.144 441.5,217C 445.788,220.771 446.621,225.271 444,230.5C 439.464,235.152 433.964,236.652 427.5,235C 426.584,234.722 425.918,234.222 425.5,233.5 Z M 429.5,230.5 C 428.5,228.833 427.167,227.5 425.5,226.5C 426.591,219.231 430.591,216.731 437.5,219C 441.687,223.46 441.02,227.127 435.5,230C 433.527,230.495 431.527,230.662 429.5,230.5 Z"/></g>
<g><path style="opacity:0.267" fill="#bbbbbb" d="M 56.5,216.5 C 57.0431,216.56 57.3764,216.893 57.5,217.5C 56.675,218.386 55.675,218.719 54.5,218.5C 55.1667,217.833 55.8333,217.167 56.5,216.5 Z"/></g>
<g><path style="opacity:0.847" fill="#757575" d="M 413.5,215.5 C 412.766,216.708 412.433,218.041 412.5,219.5C 414.833,219.5 417.167,219.5 419.5,219.5C 417.052,220.473 414.385,220.806 411.5,220.5C 411.077,218.219 411.744,216.552 413.5,215.5 Z"/></g>
<g><path style="opacity:0.514" fill="#8b8b8b" d="M 420.5,219.5 C 424.041,218.144 424.374,218.811 421.5,221.5C 421.672,220.508 421.338,219.842 420.5,219.5 Z"/></g>
<g><path style="opacity:0.004" fill="#fefffe" d="M 383.5,221.5 C 384.833,222.167 384.833,222.167 383.5,221.5 Z"/></g>
<g><path style="opacity:0.004" fill="#fefffe" d="M 210.5,222.5 C 211.833,223.167 211.833,223.167 210.5,222.5 Z"/></g>
<g><path style="opacity:0.004" fill="#fefffe" d="M 417.5,225.5 C 418.833,226.167 418.833,226.167 417.5,225.5 Z"/></g>
<g><path style="opacity:0.004" fill="#fefffe" d="M 476.5,225.5 C 477.833,226.167 477.833,226.167 476.5,225.5 Z"/></g>
<g><path style="opacity:0.686" fill="#a2a2a2" d="M 425.5,226.5 C 427.167,227.5 428.5,228.833 429.5,230.5C 427.167,230.167 425.833,228.833 425.5,226.5 Z"/></g>
<g><path style="opacity:1" fill="#292929" d="M 57.5,241.5 C 57.5,243.5 58.5,244.5 60.5,244.5C 65.7616,244.195 70.9283,244.529 76,245.5C 76.4922,246.549 76.3256,247.549 75.5,248.5C 70.1975,249.329 64.8642,249.829 59.5,250C 55.9801,252.237 55.6468,254.904 58.5,258C 63.8333,258.333 69.1667,258.667 74.5,259C 75.3366,260.011 75.67,261.178 75.5,262.5C 68.2537,263.464 60.9204,263.797 53.5,263.5C 52.5655,262.432 52.2322,261.099 52.5,259.5C 55.8531,259.655 56.1864,258.988 53.5,257.5C 51.1005,254.051 50.9339,250.385 53,246.5C 56.0571,245.471 56.0571,244.138 53,242.5C 50.5299,231.636 54.8632,227.303 66,229.5C 69.1667,229.667 72.3333,229.833 75.5,230C 76.8333,231.333 76.8333,232.667 75.5,234C 70.1667,234.333 64.8333,234.667 59.5,235C 56.6345,236.55 55.9678,238.717 57.5,241.5 Z"/></g>
<g><path style="opacity:0.753" fill="#898989" d="M 422.5,231.5 C 424.027,231.427 425.027,232.094 425.5,233.5C 423.973,233.573 422.973,232.906 422.5,231.5 Z"/></g>
<g><path style="opacity:0.004" fill="#fefffe" d="M 3.5,233.5 C 4.83333,234.167 4.83333,234.167 3.5,233.5 Z"/></g>
<g><path style="opacity:0.812" fill="#414141" d="M 454.5,243.5 C 454.5,242.5 454.5,241.5 454.5,240.5C 444.167,240.5 433.833,240.5 423.5,240.5C 423.5,241.5 423.5,242.5 423.5,243.5C 422.566,242.432 422.232,241.099 422.5,239.5C 433.5,239.5 444.5,239.5 455.5,239.5C 455.768,241.099 455.434,242.432 454.5,243.5 Z"/></g>
<g><path style="opacity:1" fill="#2a2a2a" d="M 454.5,243.5 C 450.486,243.334 446.486,243.501 442.5,244C 443.044,244.717 443.711,245.217 444.5,245.5C 445.117,245.611 445.617,245.944 446,246.5C 446.789,250.091 446.622,253.591 445.5,257C 444.167,257.667 442.833,258.333 441.5,259C 435.5,259.667 429.5,259.667 423.5,259C 422.253,257.506 422.253,256.006 423.5,254.5C 429.115,253.711 434.782,253.211 440.5,253C 442.275,249.606 441.608,246.94 438.5,245C 433.316,244.826 428.316,244.326 423.5,243.5C 423.5,242.5 423.5,241.5 423.5,240.5C 433.833,240.5 444.167,240.5 454.5,240.5C 454.5,241.5 454.5,242.5 454.5,243.5 Z"/></g>
<g><path style="opacity:0.004" fill="#fefffe" d="M 245.5,241.5 C 246.833,242.167 246.833,242.167 245.5,241.5 Z"/></g>
<g><path style="opacity:0.69" fill="#a2a2a2" d="M 57.5,241.5 C 58.8333,242.167 59.8333,243.167 60.5,244.5C 58.5,244.5 57.5,243.5 57.5,241.5 Z"/></g>
<g><path style="opacity:0.55" fill="#787878" d="M 454.5,243.5 C 451.167,244.167 447.833,244.833 444.5,245.5C 443.711,245.217 443.044,244.717 442.5,244C 446.486,243.501 450.486,243.334 454.5,243.5 Z"/></g>
<g><path style="opacity:0.235" fill="#bebebe" d="M 53.5,257.5 C 56.1864,258.988 55.8531,259.655 52.5,259.5C 52.8333,258.833 53.1667,258.167 53.5,257.5 Z"/></g>
<g><path style="opacity:0.004" fill="#fefffe" d="M 258.5,262.5 C 259.833,263.167 259.833,263.167 258.5,262.5 Z"/></g>
<g><path style="opacity:0.48" fill="#959595" d="M 75.5,262.5 C 72.2319,263.822 68.5652,264.489 64.5,264.5C 60.6508,264.499 56.9841,264.165 53.5,263.5C 60.9204,263.797 68.2537,263.464 75.5,262.5 Z"/></g>
<g><path style="opacity:1" fill="#333333" d="M 424.5,262.5 C 431.444,263.558 438.444,264.558 445.5,265.5C 446.8,268.071 445.967,269.738 443,270.5C 436.538,269.448 430.038,268.615 423.5,268C 420.898,265.688 421.232,263.855 424.5,262.5 Z"/></g>
<g><path style="opacity:1" fill="#4f4f4f" d="M 449.5,264.5 C 453.473,265.075 454.473,267.242 452.5,271C 447.361,270.886 446.361,268.719 449.5,264.5 Z"/></g>
<g><path style="opacity:1" fill="#303030" d="M 72.5,266.5 C 77.0991,266.862 78.0991,268.695 75.5,272C 80.6202,278.458 79.9535,284.458 73.5,290C 65.6618,293.278 59.4952,291.444 55,284.5C 54.2716,281.77 54.4383,279.103 55.5,276.5C 53.8608,275.084 53.0275,273.417 53,271.5C 59.5267,269.559 66.0267,267.893 72.5,266.5 Z M 64.5,273.5 C 69.5748,272.572 72.9082,274.572 74.5,279.5C 71.5238,286.496 66.8571,287.996 60.5,284C 58.4403,279.139 59.7736,275.639 64.5,273.5 Z"/></g>
<g><path style="opacity:1" fill="#313131" d="M 437.5,293.5 C 436.167,292.167 436.167,290.833 437.5,289.5C 440.327,282.822 438.16,278.822 431,277.5C 428.684,277.934 426.684,278.934 425,280.5C 423.834,283.916 423.334,287.249 423.5,290.5C 422.833,290.5 422.167,290.5 421.5,290.5C 419.914,288.919 418.914,286.919 418.5,284.5C 420.857,272.821 427.524,269.321 438.5,274C 444.312,279.791 444.979,286.124 440.5,293C 439.552,293.483 438.552,293.649 437.5,293.5 Z"/></g>
<g><path style="opacity:0.004" fill="#fefffe" d="M 283.5,276.5 C 284.833,277.167 284.833,277.167 283.5,276.5 Z"/></g>
<g><path style="opacity:0.004" fill="#fefffe" d="M 381.5,289.5 C 382.833,290.167 382.833,290.167 381.5,289.5 Z"/></g>
<g><path style="opacity:0.353" fill="#aaaaaa" d="M 437.5,289.5 C 436.167,290.833 436.167,292.167 437.5,293.5C 436.414,293.38 435.747,292.713 435.5,291.5C 435.747,290.287 436.414,289.62 437.5,289.5 Z"/></g>
<g><path style="opacity:0.427" fill="#c6c6c6" d="M 421.5,290.5 C 422.167,290.5 422.833,290.5 423.5,290.5C 423.5,291.167 423.5,291.833 423.5,292.5C 422.5,292.5 421.5,292.5 420.5,292.5C 420.833,291.833 421.167,291.167 421.5,290.5 Z"/></g>
<g><path style="opacity:0.999" fill="#373737" d="M 420.5,292.5 C 421.5,292.5 422.5,292.5 423.5,292.5C 424.434,293.568 424.768,294.901 424.5,296.5C 420.524,297.65 418.69,300.316 419,304.5C 419.414,304.957 419.914,305.291 420.5,305.5C 423.838,302.662 426.838,299.495 429.5,296C 438.267,295.878 441.1,300.044 438,308.5C 436.938,311.064 435.104,312.731 432.5,313.5C 430.734,313.566 429.734,312.732 429.5,311C 431.08,309.277 432.58,307.444 434,305.5C 434.757,302.086 433.59,301.086 430.5,302.5C 428.365,308.158 424.365,310.658 418.5,310C 417.069,309.535 415.903,308.701 415,307.5C 414.192,303.973 414.359,300.64 415.5,297.5C 417.5,296.167 419.167,294.5 420.5,292.5 Z"/></g>
<g><path style="opacity:0.004" fill="#fefffe" d="M 151.5,293.5 C 152.833,294.167 152.833,294.167 151.5,293.5 Z"/></g>
<g><path style="opacity:0.714" fill="#999999" d="M 420.5,292.5 C 419.167,294.5 417.5,296.167 415.5,297.5C 416.167,294.833 417.833,293.167 420.5,292.5 Z"/></g>
<g><path style="opacity:0.999" fill="#464646" d="M 71.5,302.5 C 68.4772,303.224 65.4772,304.224 62.5,305.5C 59.083,303.109 57.7497,299.775 58.5,295.5C 59.8734,295.343 61.2068,295.51 62.5,296C 63.0939,301.421 66.0939,303.588 71.5,302.5 Z"/></g>
<g><path style="opacity:0.004" fill="#fefffe" d="M 197.5,298.5 C 198.833,299.167 198.833,299.167 197.5,298.5 Z"/></g>
<g><path style="opacity:0.961" fill="#6d6d6d" d="M 83.5,300.5 C 79.8333,301.167 76.1667,301.833 72.5,302.5C 75.9626,300.109 79.6292,299.442 83.5,300.5 Z"/></g>
<g><path style="opacity:1" fill="#282828" d="M 83.5,300.5 C 84.404,301.209 84.7373,302.209 84.5,303.5C 78.1744,305.997 71.6744,307.997 65,309.5C 63.0448,309.359 61.5448,308.526 60.5,307C 61.0442,306.283 61.7109,305.783 62.5,305.5C 65.4772,304.224 68.4772,303.224 71.5,302.5C 71.8333,302.5 72.1667,302.5 72.5,302.5C 76.1667,301.833 79.8333,301.167 83.5,300.5 Z"/></g>
<g><path style="opacity:0.004" fill="#fefffe" d="M 86.5,300.5 C 87.8333,301.167 87.8333,301.167 86.5,300.5 Z"/></g>
<g><path style="opacity:0.004" fill="#fefffe" d="M 84.5,303.5 C 85.8333,304.167 85.8333,304.167 84.5,303.5 Z"/></g>
<g><path style="opacity:1" fill="#323232" d="M 68.5,328.5 C 68.5,325.5 68.5,322.5 68.5,319.5C 67.5,319.5 66.5,319.5 65.5,319.5C 65.5,318.167 65.5,316.833 65.5,315.5C 72.7479,311.72 80.4146,308.72 88.5,306.5C 94.7556,306.922 98.2556,310.255 99,316.5C 99.6667,318.833 99.6667,321.167 99,323.5C 97.6667,324.833 96.3333,324.833 95,323.5C 95.5879,318.117 93.5879,314.117 89,311.5C 87.9326,312.191 86.7659,312.691 85.5,313C 89.9628,314.501 91.9628,317.667 91.5,322.5C 89.6601,332.467 83.6601,336.301 73.5,334C 70.9441,332.945 69.2775,331.112 68.5,328.5 Z M 82.5,315.5 C 83.1667,316.833 84.1667,317.833 85.5,318.5C 87.5153,324.787 85.182,328.453 78.5,329.5C 69.6342,325.714 69.3009,321.214 77.5,316C 79.1341,315.506 80.8008,315.34 82.5,315.5 Z"/></g>
<g><path style="opacity:0.004" fill="#fefffe" d="M 140.5,308.5 C 141.833,309.167 141.833,309.167 140.5,308.5 Z"/></g>
<g><path style="opacity:0.004" fill="#fefffe" d="M 464.5,308.5 C 465.833,309.167 465.833,309.167 464.5,308.5 Z"/></g>
<g><path style="opacity:0.004" fill="#fefffe" d="M 31.5,309.5 C 32.8333,310.167 32.8333,310.167 31.5,309.5 Z"/></g>
<g><path style="opacity:0.004" fill="#fefffe" d="M 489.5,309.5 C 490.833,310.167 490.833,310.167 489.5,309.5 Z"/></g>
<g><path style="opacity:0.58" fill="#b0b0b0" d="M 82.5,315.5 C 84.5,315.5 85.5,316.5 85.5,318.5C 84.1667,317.833 83.1667,316.833 82.5,315.5 Z"/></g>
<g><path style="opacity:1" fill="#2f2f2f" d="M 406.5,321.5 C 408.199,321.34 409.866,321.506 411.5,322C 419.081,326.04 426.581,330.207 434,334.5C 433.242,341.186 430.409,347.02 425.5,352C 411.949,356.227 403.283,351.56 399.5,338C 401.357,332.251 403.69,326.751 406.5,321.5 Z M 411.5,328.5 C 411.833,328.5 412.167,328.5 412.5,328.5C 412.973,329.906 413.973,330.573 415.5,330.5C 419.586,333.268 423.92,335.768 428.5,338C 423.58,350.118 416.413,351.618 407,342.5C 406.077,340.966 405.577,339.299 405.5,337.5C 406.463,334.852 407.463,332.186 408.5,329.5C 409.391,328.89 410.391,328.557 411.5,328.5 Z"/></g>
<g><path style="opacity:0.796" fill="#717171" d="M 65.5,315.5 C 65.5,316.833 65.5,318.167 65.5,319.5C 66.5,319.5 67.5,319.5 68.5,319.5C 68.5,322.5 68.5,325.5 68.5,328.5C 67.5269,326.052 67.1936,323.385 67.5,320.5C 66.5,320.5 65.5,320.5 64.5,320.5C 64.2155,318.585 64.5489,316.919 65.5,315.5 Z"/></g>
<g><path style="opacity:0.004" fill="#fefffe" d="M 120.5,325.5 C 121.833,326.167 121.833,326.167 120.5,325.5 Z"/></g>
<g><path style="opacity:0.004" fill="#fefffe" d="M 118.5,327.5 C 119.833,328.167 119.833,328.167 118.5,327.5 Z"/></g>
<g><path style="opacity:0.075" fill="#bdbdbd" d="M 411.5,328.5 C 410.391,328.557 409.391,328.89 408.5,329.5C 409.053,327.448 410.053,327.115 411.5,328.5 Z"/></g>
<g><path style="opacity:0.467" fill="#939393" d="M 412.5,328.5 C 414.027,328.427 415.027,329.094 415.5,330.5C 413.973,330.573 412.973,329.906 412.5,328.5 Z"/></g>
<g><path style="opacity:1" fill="#343434" d="M 79.5,341.5 C 81.2624,340.738 82.2624,339.404 82.5,337.5C 83.343,335.827 84.6763,334.66 86.5,334C 100.706,332.574 105.872,338.741 102,352.5C 94.1008,360.838 86.7674,360.505 80,351.5C 78.3837,348.176 78.217,344.843 79.5,341.5 Z M 90.5,338.5 C 98.9026,340.037 100.569,344.204 95.5,351C 87.2463,354.081 83.7463,351.248 85,342.5C 86.8121,341.023 88.6455,339.69 90.5,338.5 Z"/></g>
<g><path style="opacity:0.812" fill="#959595" d="M 82.5,337.5 C 82.2624,339.404 81.2624,340.738 79.5,341.5C 79.7376,339.596 80.7376,338.262 82.5,337.5 Z"/></g>
<g><path style="opacity:0.004" fill="#fefffe" d="M 220.5,349.5 C 221.833,350.167 221.833,350.167 220.5,349.5 Z"/></g>
<g><path style="opacity:1" fill="#2f2f2f" d="M 386.5,364.5 C 385.631,362.283 385.298,359.95 385.5,357.5C 388.477,349.329 394.144,346.829 402.5,350C 410.912,356.292 411.579,363.292 404.5,371C 400.098,372.985 395.765,372.819 391.5,370.5C 390.369,368.926 390.202,367.259 391,365.5C 393.713,361.908 396.547,358.408 399.5,355C 397.244,353.133 394.91,353.133 392.5,355C 390.562,357.47 389.396,360.304 389,363.5C 388.329,364.252 387.496,364.586 386.5,364.5 Z M 404.5,363.5 C 403.094,363.973 402.427,364.973 402.5,366.5C 400.32,367.855 398.32,367.689 396.5,366C 399.04,363.795 401.207,361.295 403,358.5C 404.269,359.905 404.769,361.571 404.5,363.5 Z"/></g>
<g><path style="opacity:0.004" fill="#fefffe" d="M 285.5,356.5 C 286.833,357.167 286.833,357.167 285.5,356.5 Z"/></g>
<g><path style="opacity:0.999" fill="#343434" d="M 96.5,371.5 C 97.2891,371.217 97.9558,370.717 98.5,370C 97.2068,369.51 95.8734,369.343 94.5,369.5C 90.7353,368.609 89.4019,366.443 90.5,363C 93.2445,362.372 95.2445,363.372 96.5,366C 100.327,366.976 103.66,366.143 106.5,363.5C 108.749,362.92 110.415,361.587 111.5,359.5C 116.838,359.029 117.505,360.863 113.5,365C 108.986,368.091 104.653,371.425 100.5,375C 97.8882,375.741 96.2215,374.741 95.5,372C 95.7284,371.601 96.0618,371.435 96.5,371.5 Z"/></g>
<g><path style="opacity:0.004" fill="#fefffe" d="M 269.5,360.5 C 270.833,361.167 270.833,361.167 269.5,360.5 Z"/></g>
<g><path style="opacity:0.671" fill="#7e7e7e" d="M 385.5,357.5 C 385.298,359.95 385.631,362.283 386.5,364.5C 385.275,363.848 384.608,362.681 384.5,361C 384.514,359.615 384.848,358.449 385.5,357.5 Z"/></g>
<g><path style="opacity:0.722" fill="#878787" d="M 111.5,359.5 C 110.415,361.587 108.749,362.92 106.5,363.5C 107.585,361.413 109.251,360.08 111.5,359.5 Z"/></g>
<g><path style="opacity:0.686" fill="#9b9b9b" d="M 404.5,363.5 C 404.573,365.027 403.906,366.027 402.5,366.5C 402.427,364.973 403.094,363.973 404.5,363.5 Z"/></g>
<g><path style="opacity:0.999" fill="#373737" d="M 391.5,387.5 C 388.771,389.185 386.104,389.852 383.5,389.5C 382.766,388.292 382.433,386.959 382.5,385.5C 384.512,384.772 386.512,383.938 388.5,383C 389.38,381.644 389.714,380.144 389.5,378.5C 385.556,379.795 381.556,381.128 377.5,382.5C 371.602,381.72 369.435,378.387 371,372.5C 374.018,367.127 378.518,364.961 384.5,366C 385.711,367.113 385.711,368.28 384.5,369.5C 382.138,370.271 379.804,371.105 377.5,372C 374.697,374.222 374.863,376.055 378,377.5C 380.39,376.722 382.557,375.555 384.5,374C 390.429,371.957 393.763,373.957 394.5,380C 394.211,382.787 393.211,385.287 391.5,387.5 Z"/></g>
<g><path style="opacity:0.38" fill="#a0a0a0" d="M 94.5,369.5 C 95.8734,369.343 97.2068,369.51 98.5,370C 97.9558,370.717 97.2891,371.217 96.5,371.5C 95.8333,370.833 95.1667,370.167 94.5,369.5 Z"/></g>
<g><path style="opacity:0.999" fill="#2f2f2f" d="M 114.5,376.5 C 116.467,379.296 118.967,381.63 122,383.5C 124.401,382.601 125.901,380.934 126.5,378.5C 127.99,376.72 129.99,376.054 132.5,376.5C 132.657,377.873 132.49,379.207 132,380.5C 125.59,387.415 118.757,393.748 111.5,399.5C 105.441,396.283 101.441,391.449 99.5,385C 101.699,376.906 106.699,374.072 114.5,376.5 Z M 109.5,380.5 C 112.955,381.359 115.621,383.359 117.5,386.5C 115.517,388.984 113.35,391.317 111,393.5C 108.707,391.118 106.874,388.451 105.5,385.5C 106.127,383.213 107.46,381.546 109.5,380.5 Z"/></g>
<g><path style="opacity:0.004" fill="#fefffe" d="M 335.5,376.5 C 336.833,377.167 336.833,377.167 335.5,376.5 Z"/></g>
<g><path style="opacity:0.98" fill="#8f8f8f" d="M 114.5,376.5 C 117.414,377.906 119.914,379.906 122,382.5C 123.371,380.959 124.871,379.625 126.5,378.5C 125.901,380.934 124.401,382.601 122,383.5C 118.967,381.63 116.467,379.296 114.5,376.5 Z"/></g>
<g><path style="opacity:0.004" fill="#fefffe" d="M 28.5,378.5 C 29.8333,379.167 29.8333,379.167 28.5,378.5 Z"/></g>
<g><path style="opacity:0.999" fill="#353535" d="M 363.5,378.5 C 364.873,378.343 366.207,378.51 367.5,379C 371.55,383.595 375.717,388.095 380,392.5C 381.254,396.111 380.088,397.611 376.5,397C 371.985,392.785 367.818,388.285 364,383.5C 363.506,381.866 363.34,380.199 363.5,378.5 Z"/></g>
<g><path style="opacity:1" fill="#343434" d="M 345.5,392.5 C 345.328,393.492 345.662,394.158 346.5,394.5C 347.206,395.557 347.539,395.224 347.5,393.5C 348.167,393.5 348.5,393.167 348.5,392.5C 352.972,385.808 358.638,384.808 365.5,389.5C 370.959,394.879 371.792,400.879 368,407.5C 365.242,409.643 362.076,410.81 358.5,411C 359.582,413.306 358.748,414.806 356,415.5C 350.878,409.957 346.211,403.957 342,397.5C 338.975,387.566 342.641,381.566 353,379.5C 355.942,379.437 356.942,380.77 356,383.5C 350.472,384.199 346.972,387.199 345.5,392.5 Z M 353.5,404.5 C 353.573,402.973 352.906,401.973 351.5,401.5C 351.828,391.252 355.995,389.252 364,395.5C 365.741,404.935 362.241,407.935 353.5,404.5 Z"/></g>
<g><path style="opacity:0.004" fill="#fefffe" d="M 21.5,382.5 C 22.8333,383.167 22.8333,383.167 21.5,382.5 Z"/></g>
<g><path style="opacity:0.004" fill="#fefffe" d="M 411.5,382.5 C 412.833,383.167 412.833,383.167 411.5,382.5 Z"/></g>
<g><path style="opacity:0.373" fill="#b6b6b6" d="M 382.5,385.5 C 382.433,386.959 382.766,388.292 383.5,389.5C 382.414,389.38 381.747,388.713 381.5,387.5C 381.543,386.584 381.876,385.917 382.5,385.5 Z"/></g>
<g><path style="opacity:0.004" fill="#fefffe" d="M 391.5,387.5 C 392.833,388.167 392.833,388.167 391.5,387.5 Z"/></g>
<g><path style="opacity:1" fill="#313131" d="M 142.5,390.5 C 149.663,389.331 154.829,391.998 158,398.5C 158.745,412.096 152.578,417.263 139.5,414C 133.205,408.118 133.038,402.284 139,396.5C 143.588,398.754 147.921,401.421 152,404.5C 153.46,401.814 152.96,399.314 150.5,397C 147.879,396.061 145.212,395.228 142.5,394.5C 141.637,393.274 141.637,391.94 142.5,390.5 Z M 141.5,403.5 C 144.286,405.113 146.953,406.946 149.5,409C 146.156,410.918 143.156,410.418 140.5,407.5C 140.232,405.901 140.566,404.568 141.5,403.5 Z"/></g>
<g><path style="opacity:0.004" fill="#e0e0e0" d="M 345.5,392.5 C 346.5,392.5 347.5,392.5 348.5,392.5C 348.5,393.167 348.167,393.5 347.5,393.5C 346.833,393.5 346.5,393.833 346.5,394.5C 345.662,394.158 345.328,393.492 345.5,392.5 Z"/></g>
<g><path style="opacity:1" fill="#494949" d="M 381.5,397.5 C 386.041,397.815 387.041,399.649 384.5,403C 379.676,403.183 378.676,401.35 381.5,397.5 Z"/></g>
<g><path style="opacity:0.004" fill="#fefffe" d="M 474.5,398.5 C 475.833,399.167 475.833,399.167 474.5,398.5 Z"/></g>
<g><path style="opacity:1" fill="#353535" d="M 348.5,419.5 C 346.856,419.714 345.356,419.38 344,418.5C 343.536,419.094 343.369,419.761 343.5,420.5C 340.528,426.268 336.195,427.602 330.5,424.5C 326.977,419.453 323.977,414.12 321.5,408.5C 322.603,405.018 324.27,404.685 326.5,407.5C 326.427,409.027 327.094,410.027 328.5,410.5C 329.881,414.049 331.881,417.216 334.5,420C 338.421,420.765 340.755,419.098 341.5,415C 339.683,410.364 337.349,406.03 334.5,402C 335.222,399.259 336.888,398.259 339.5,399C 343.068,405.06 346.401,411.227 349.5,417.5C 349.137,418.183 348.804,418.85 348.5,419.5 Z"/></g>
<g><path style="opacity:1" fill="#333333" d="M 163.5,401.5 C 165.948,401.085 167.281,402.085 167.5,404.5C 165.929,409.047 164.263,413.547 162.5,418C 164.105,422.645 166.939,423.478 171,420.5C 172.979,416.227 175.145,412.06 177.5,408C 178.784,407.316 179.951,407.483 181,408.5C 179.797,413.941 177.964,419.275 175.5,424.5C 177.139,428.243 179.805,429.243 183.5,427.5C 185.763,423.21 187.929,418.877 190,414.5C 191.333,413.167 192.667,413.167 194,414.5C 192.82,421.716 190.32,428.55 186.5,435C 182.133,433.401 177.466,432.067 172.5,431C 170.996,429.509 170.163,427.676 170,425.5C 161.214,428.94 156.88,425.94 157,416.5C 158.631,411.241 160.798,406.241 163.5,401.5 Z"/></g>
<g><path style="opacity:0.404" fill="#ababab" d="M 351.5,401.5 C 352.906,401.973 353.573,402.973 353.5,404.5C 352.094,404.027 351.427,403.027 351.5,401.5 Z"/></g>
<g><path style="opacity:0.082" fill="#cecece" d="M 141.5,403.5 C 140.566,404.568 140.232,405.901 140.5,407.5C 139.212,405.965 139.212,404.299 140.5,402.5C 141.107,402.624 141.44,402.957 141.5,403.5 Z"/></g>
<g><path style="opacity:0.004" fill="#fefffe" d="M 75.5,405.5 C 76.8333,406.167 76.8333,406.167 75.5,405.5 Z"/></g>
<g><path style="opacity:0.271" fill="#b0b0b0" d="M 326.5,407.5 C 327.906,407.973 328.573,408.973 328.5,410.5C 327.094,410.027 326.427,409.027 326.5,407.5 Z"/></g>
<g><path style="opacity:1" fill="#323232" d="M 311.5,410.5 C 314.945,411.149 318.111,412.482 321,414.5C 325.494,420.582 325.494,426.582 321,432.5C 315.997,436.258 310.83,436.425 305.5,433C 303.078,430.997 302.245,428.497 303,425.5C 307.789,423.188 312.623,421.021 317.5,419C 315.664,417.581 313.664,416.414 311.5,415.5C 307.959,416.671 305.125,418.671 303,421.5C 299.944,419.156 300.111,416.656 303.5,414C 306.158,412.522 308.825,411.355 311.5,410.5 Z M 319.5,426.5 C 317.833,427.5 316.5,428.833 315.5,430.5C 313.801,430.66 312.134,430.494 310.5,430C 309.289,429.107 309.289,428.274 310.5,427.5C 313.04,426.598 315.54,425.598 318,424.5C 319.03,424.836 319.53,425.503 319.5,426.5 Z"/></g>
<g><path style="opacity:0.004" fill="#fefffe" d="M 45.5,414.5 C 46.8333,415.167 46.8333,415.167 45.5,414.5 Z"/></g>
<g><path style="opacity:0.486" fill="#7e7e7e" d="M 204.5,417.5 C 202.694,420.338 201.694,420.005 201.5,416.5C 200.041,416.433 198.708,416.766 197.5,417.5C 197.791,416.351 198.624,415.684 200,415.5C 201.607,416.074 203.107,416.74 204.5,417.5 Z"/></g>
<g><path style="opacity:1" fill="#2e2e2e" d="M 204.5,417.5 C 212.507,416.474 217.174,420.141 218.5,428.5C 217.892,432.064 216.725,435.397 215,438.5C 208.95,442.78 203.283,442.447 198,437.5C 195.629,440.373 193.796,440.039 192.5,436.5C 194.282,430.07 195.949,423.737 197.5,417.5C 198.708,416.766 200.041,416.433 201.5,416.5C 201.694,420.005 202.694,420.338 204.5,417.5 Z M 212.5,432.5 C 210.833,433.5 209.5,434.833 208.5,436.5C 198.383,434.305 197.05,429.472 204.5,422C 206.635,421.365 208.635,421.699 210.5,423C 212.227,425.904 212.893,429.07 212.5,432.5 Z"/></g>
<g><path style="opacity:1" fill="#363636" d="M 292.5,416.5 C 293.822,416.33 294.989,416.663 296,417.5C 297.658,423.798 299.158,430.132 300.5,436.5C 300.498,440.278 298.831,441.278 295.5,439.5C 292.71,442.291 289.543,442.958 286,441.5C 285.333,440.5 285.333,439.5 286,438.5C 290.577,438.587 293.411,436.42 294.5,432C 292.111,426.98 291.445,421.813 292.5,416.5 Z"/></g>
<g><path style="opacity:0.502" fill="#b3b3b3" d="M 348.5,419.5 C 347.081,420.451 345.415,420.784 343.5,420.5C 343.369,419.761 343.536,419.094 344,418.5C 345.356,419.38 346.856,419.714 348.5,419.5 Z"/></g>
<g><path style="opacity:0.004" fill="#fefffe" d="M 420.5,420.5 C 421.833,421.167 421.833,421.167 420.5,420.5 Z"/></g>
<g><path style="opacity:1" fill="#2f2f2f" d="M 227.5,420.5 C 242.353,421.186 248.52,428.853 246,443.5C 240.197,453.656 232.031,456.156 221.5,451C 220.167,449.333 220.167,447.667 221.5,446C 224.43,446.439 227.43,446.939 230.5,447.5C 233.433,447.534 236.1,446.701 238.5,445C 243.727,432.965 239.727,426.798 226.5,426.5C 224.082,432.422 226.082,434.755 232.5,433.5C 233.176,437.49 231.51,439.157 227.5,438.5C 224.137,438.773 221.47,437.606 219.5,435C 220.297,431.255 220.797,427.421 221,423.5C 223.166,422.269 225.333,421.269 227.5,420.5 Z"/></g>
<g><path style="opacity:0.999" fill="#353535" d="M 268.5,422.5 C 270.125,425.449 269.292,427.449 266,428.5C 265.235,428.43 264.735,428.097 264.5,427.5C 264.5,425.833 264.5,424.167 264.5,422.5C 265.833,422.5 267.167,422.5 268.5,422.5 Z"/></g>
<g><path style="opacity:0.71" fill="#7e7e7e" d="M 268.5,422.5 C 267.167,422.5 265.833,422.5 264.5,422.5C 264.5,424.167 264.5,425.833 264.5,427.5C 263.539,425.735 263.205,423.735 263.5,421.5C 265.415,421.216 267.081,421.549 268.5,422.5 Z"/></g>
<g><path style="opacity:0.651" fill="#898989" d="M 319.5,426.5 C 319.167,428.833 317.833,430.167 315.5,430.5C 316.5,428.833 317.833,427.5 319.5,426.5 Z"/></g>
<g><path style="opacity:0.737" fill="#828282" d="M 212.5,432.5 C 212.167,434.833 210.833,436.167 208.5,436.5C 209.5,434.833 210.833,433.5 212.5,432.5 Z"/></g>
<g><path style="opacity:0.004" fill="#fefffe" d="M 455.5,440.5 C 456.833,441.167 456.833,441.167 455.5,440.5 Z"/></g>
<g><path style="opacity:0.004" fill="#fefffe" d="M 178.5,450.5 C 179.833,451.167 179.833,451.167 178.5,450.5 Z"/></g>
<g><path style="opacity:0.004" fill="#fefffe" d="M 447.5,464.5 C 448.833,465.167 448.833,465.167 447.5,464.5 Z"/></g>
<g><path style="opacity:0.004" fill="#fefffe" d="M 326.5,478.5 C 327.833,479.167 327.833,479.167 326.5,478.5 Z"/></g>
<g><path style="opacity:0.004" fill="#fefffe" d="M 267.5,487.5 C 268.833,488.167 268.833,488.167 267.5,487.5 Z"/></g>
<g><path style="opacity:0.004" fill="#fefffe" d="M 320.5,489.5 C 321.833,490.167 321.833,490.167 320.5,489.5 Z"/></g>
<g><path style="opacity:0.004" fill="#fefffe" d="M 485.5,492.5 C 486.833,493.167 486.833,493.167 485.5,492.5 Z"/></g>
</svg>
